<svg width="596" height="117" viewBox="0 0 596 117" fill="none" xmlns="http://www.w3.org/2000/svg">
<path d="M80.484 78.508C78.2547 78.508 76.4307 78.052 75.012 77.14C73.5933 76.228 72.58 74.8853 71.972 73.112C71.364 71.288 71.1613 69.0333 71.364 66.348C71.6173 63.6627 72.3267 60.572 73.492 57.076L85.88 19.76C86.8427 16.9733 87.4 14.592 87.552 12.616C87.704 10.64 87.3493 9.14533 86.488 8.132C85.6267 7.068 84.1573 6.536 82.08 6.536C80.864 6.536 79.2933 6.916 77.368 7.676C75.4933 8.436 73.3653 9.728 70.984 11.552C68.6533 13.376 66.2213 15.8587 63.688 19C61.2053 22.1413 58.7227 26.0933 56.24 30.856C53.808 35.568 51.528 41.2173 49.4 47.804L50.312 35.796C52.288 30.2227 54.4413 25.4093 56.772 21.356C59.1027 17.3027 61.5093 13.908 63.992 11.172C66.4747 8.436 68.9067 6.25733 71.288 4.636C73.72 2.964 75.9493 1.77333 77.976 1.064C80.0533 0.354666 81.852 9.53674e-07 83.372 9.53674e-07C86.9693 9.53674e-07 89.6547 0.810668 91.428 2.432C93.252 4.00267 94.24 6.28267 94.392 9.272C94.5947 12.2107 93.9867 15.732 92.568 19.836L79.952 57.912C79.1413 60.3947 78.5587 62.5733 78.204 64.448C77.9 66.3227 77.824 67.8933 77.976 69.16C78.1787 70.376 78.6093 71.288 79.268 71.896C79.9267 72.504 80.8133 72.808 81.928 72.808C82.8907 72.808 83.524 73.112 83.828 73.72C84.1827 74.2773 84.2587 74.936 84.056 75.696C83.8533 76.4053 83.448 77.0387 82.84 77.596C82.232 78.204 81.4467 78.508 80.484 78.508ZM3.26801 78.356C2.15334 78.356 1.31734 78.1787 0.760006 77.824C0.25334 77.4693 0.10134 76.8867 0.304006 76.076L20.976 12.16C21.6347 10.184 21.9133 8.74 21.812 7.828C21.7613 6.916 21.1787 6.46 20.064 6.46C19.2533 6.46 18.3413 6.81467 17.328 7.524C16.3653 8.18267 15.276 9.196 14.06 10.564C12.8947 11.932 11.5267 13.7053 9.95601 15.884C9.14534 17.0493 8.33467 17.7587 7.52401 18.012C6.71334 18.2147 5.85201 18.0373 4.94001 17.48C4.18001 17.024 3.74934 16.4667 3.64801 15.808C3.54667 15.1493 3.77467 14.364 4.33201 13.452C6.91601 9.75333 9.27201 6.94133 11.4 5.016C13.5787 3.09067 15.5293 1.79867 17.252 1.14C18.9747 0.430664 20.52 0.0759954 21.888 0.0759954C25.08 0.0759954 27.1827 1.11466 28.196 3.192C29.2093 5.26933 29.0573 8.33467 27.74 12.388L7.14401 76.228C6.94134 76.9373 6.53601 77.4693 5.92801 77.824C5.32001 78.1787 4.43334 78.356 3.26801 78.356ZM36.708 78.356C35.5933 78.356 34.7573 78.1787 34.2 77.824C33.6427 77.4693 33.4907 76.8867 33.744 76.076L52.136 19.76C53.0987 16.9733 53.6307 14.6173 53.732 12.692C53.884 10.716 53.5547 9.196 52.744 8.132C51.9333 7.068 50.5147 6.536 48.488 6.536C47.2213 6.536 45.6253 6.916 43.7 7.676C41.8253 8.436 39.7227 9.728 37.392 11.552C35.0613 13.376 32.6293 15.8587 30.096 19C27.6133 22.1413 25.1307 26.0933 22.648 30.856C20.216 35.568 17.936 41.2173 15.808 47.804L16.644 35.796C18.6707 30.2227 20.8493 25.4093 23.18 21.356C25.5107 17.3027 27.9173 13.908 30.4 11.172C32.9333 8.436 35.3907 6.25733 37.772 4.636C40.1533 2.964 42.3827 1.77333 44.46 1.064C46.5373 0.354666 48.3107 9.53674e-07 49.78 9.53674e-07C53.3267 9.53674e-07 55.9867 0.810668 57.76 2.432C59.584 4.00267 60.572 6.28267 60.724 9.272C60.9267 12.2107 60.3187 15.732 58.9 19.836L40.584 76.228C40.3813 76.9373 39.976 77.4693 39.368 77.824C38.76 78.1787 37.8733 78.356 36.708 78.356ZM80.4484 78.508C79.739 78.508 79.207 78.204 78.8524 77.596C78.4977 77.0387 78.371 76.4053 78.4724 75.696C78.523 74.936 78.827 74.2773 79.3844 73.72C79.9417 73.112 80.7524 72.808 81.8164 72.808C83.1337 72.808 84.527 72.3267 85.9964 71.364C87.4657 70.4013 88.9857 69.0587 90.5564 67.336C92.0764 65.6133 93.647 63.5867 95.2684 61.256C96.8897 58.9253 98.5364 56.392 100.208 53.656C100.614 52.9973 101.171 52.7187 101.88 52.82C102.59 52.9213 103.172 53.2507 103.628 53.808C104.084 54.3147 104.11 54.8973 103.704 55.556C101.526 59.356 99.4484 62.7 97.4724 65.588C95.547 68.476 93.6724 70.8827 91.8484 72.808C89.9737 74.6827 88.1244 76.1013 86.3004 77.064C84.4257 78.0267 82.475 78.508 80.4484 78.508ZM105.449 78.508C103.726 78.508 102.231 78.052 100.965 77.14C99.6982 76.228 98.7102 74.936 98.0008 73.264C97.2915 71.592 96.9368 69.616 96.9368 67.336C96.9368 65.0053 97.2915 62.4973 98.0008 59.812C98.7102 57.1267 99.7742 54.492 101.193 51.908C102.611 49.324 104.334 46.968 106.361 44.84C108.387 42.712 110.718 41.0147 113.353 39.748C116.038 38.4307 118.977 37.772 122.169 37.772C124.094 37.772 126.171 38.1267 128.401 38.836C130.63 39.4947 132.631 40.432 134.405 41.648L133.037 46.892C130.554 45.5747 128.35 44.7387 126.425 44.384C124.499 43.9787 122.726 43.776 121.105 43.776C118.926 43.776 116.925 44.2827 115.101 45.296C113.327 46.3093 111.731 47.652 110.313 49.324C108.945 50.9453 107.779 52.7693 106.817 54.796C105.854 56.772 105.119 58.748 104.613 60.724C104.106 62.7 103.853 64.4987 103.853 66.12C103.853 67.3867 104.005 68.5013 104.309 69.464C104.613 70.4267 105.043 71.1613 105.601 71.668C106.209 72.1747 106.893 72.428 107.653 72.428C109.527 72.428 111.655 71.4147 114.037 69.388C116.418 67.3107 118.951 64.2707 121.637 60.268C124.373 56.2653 127.159 51.4013 129.997 45.676L132.809 48.488C129.515 55.2773 126.247 60.9013 123.005 65.36C119.813 69.768 116.747 73.0613 113.809 75.24C110.87 77.4187 108.083 78.508 105.449 78.508ZM128.857 78.508C126.577 78.508 124.879 78.0773 123.765 77.216C122.701 76.4053 122.017 75.3667 121.713 74.1C121.459 72.7827 121.459 71.4147 121.713 69.996C121.966 68.5267 122.321 67.184 122.777 65.968L131.289 40.508C131.643 39.4947 132.049 38.836 132.505 38.532C133.011 38.228 133.746 38.076 134.709 38.076C136.279 38.076 137.267 38.3293 137.673 38.836C138.129 39.292 138.179 40.0267 137.825 41.04L129.465 65.892C128.603 68.5267 128.198 70.3507 128.249 71.364C128.35 72.3267 128.983 72.808 130.149 72.808C130.858 72.808 131.39 73.112 131.745 73.72C132.099 74.2773 132.226 74.936 132.125 75.696C132.074 76.4053 131.77 77.0387 131.213 77.596C130.706 78.204 129.921 78.508 128.857 78.508ZM128.839 78.508C128.13 78.508 127.598 78.204 127.243 77.596C126.888 77.0387 126.762 76.4053 126.863 75.696C126.914 74.936 127.218 74.2773 127.775 73.72C128.332 73.112 129.143 72.808 130.207 72.808C131.524 72.808 132.918 72.3267 134.387 71.364C135.856 70.4013 137.376 69.0587 138.947 67.336C140.467 65.6133 142.038 63.5867 143.659 61.256C145.28 58.9253 146.927 56.392 148.599 53.656C149.004 52.9973 149.562 52.7187 150.271 52.82C150.98 52.9213 151.563 53.2507 152.019 53.808C152.475 54.3147 152.5 54.8973 152.095 55.556C149.916 59.356 147.839 62.7 145.863 65.588C143.938 68.476 142.063 70.8827 140.239 72.808C138.364 74.6827 136.515 76.1013 134.691 77.064C132.816 78.0267 130.866 78.508 128.839 78.508ZM152.779 78.508C151.056 78.508 149.536 78.052 148.219 77.14C146.952 76.228 145.964 74.936 145.255 73.264C144.546 71.592 144.191 69.616 144.191 67.336C144.191 65.0053 144.546 62.4973 145.255 59.812C145.964 57.1267 147.028 54.492 148.447 51.908C149.866 49.324 151.588 46.968 153.615 44.84C155.692 42.712 158.048 41.0147 160.683 39.748C163.318 38.4307 166.256 37.772 169.499 37.772C170.968 37.772 172.539 37.9747 174.211 38.38C175.883 38.7853 177.504 39.368 179.075 40.128L191.615 2.508C191.919 1.49467 192.299 0.836001 192.755 0.531999C193.262 0.227997 194.022 0.0759954 195.035 0.0759954C196.606 0.0759954 197.594 0.329332 197.999 0.836004C198.455 1.292 198.506 2.02667 198.151 3.04L177.251 65.892C176.44 68.5267 176.111 70.3507 176.263 71.364C176.415 72.3267 177.276 72.808 178.847 72.808C179.303 72.808 179.632 73.112 179.835 73.72C180.088 74.2773 180.164 74.936 180.063 75.696C180.012 76.4053 179.784 77.0387 179.379 77.596C178.974 78.204 178.366 78.508 177.555 78.508C175.072 78.508 173.223 78.0773 172.007 77.216C170.791 76.4053 170.006 75.3667 169.651 74.1C169.347 72.7827 169.296 71.4147 169.499 69.996C169.752 68.5267 170.082 67.184 170.487 65.968L170.639 65.436C168.511 68.3747 166.383 70.8067 164.255 72.732C162.178 74.6573 160.176 76.1013 158.251 77.064C156.326 78.0267 154.502 78.508 152.779 78.508ZM154.907 72.428C156.68 72.428 158.682 71.5413 160.911 69.768C163.191 67.944 165.623 65.284 168.207 61.788C170.842 58.292 173.476 54.0613 176.111 49.096L177.327 45.524C175.554 44.8147 173.932 44.3587 172.463 44.156C170.994 43.9027 169.651 43.776 168.435 43.776C166.256 43.776 164.255 44.2827 162.431 45.296C160.607 46.3093 158.986 47.652 157.567 49.324C156.199 50.9453 155.034 52.7693 154.071 54.796C153.108 56.772 152.374 58.748 151.867 60.724C151.36 62.7 151.107 64.4987 151.107 66.12C151.107 67.3867 151.259 68.5013 151.563 69.464C151.867 70.4267 152.298 71.1613 152.855 71.668C153.463 72.1747 154.147 72.428 154.907 72.428ZM177.527 78.508C176.817 78.508 176.285 78.204 175.931 77.596C175.576 77.0387 175.449 76.4053 175.551 75.696C175.601 74.936 175.905 74.2773 176.463 73.72C177.02 73.112 177.831 72.808 178.895 72.808C180.212 72.808 181.605 72.3267 183.075 71.364C184.544 70.4013 186.064 69.0587 187.635 67.336C189.155 65.6133 190.725 63.5867 192.347 61.256C193.968 58.9253 195.615 56.392 197.287 53.656C197.692 52.9973 198.249 52.7187 198.959 52.82C199.668 52.9213 200.251 53.2507 200.707 53.808C201.163 54.3147 201.188 54.8973 200.783 55.556C198.604 59.356 196.527 62.7 194.551 65.588C192.625 68.476 190.751 70.8827 188.927 72.808C187.052 74.6827 185.203 76.1013 183.379 77.064C181.504 78.0267 179.553 78.508 177.527 78.508ZM201.467 78.508C199.744 78.508 198.224 78.052 196.907 77.14C195.64 76.228 194.652 74.936 193.943 73.264C193.233 71.592 192.879 69.616 192.879 67.336C192.879 65.0053 193.233 62.4973 193.943 59.812C194.652 57.1267 195.716 54.492 197.135 51.908C198.553 49.324 200.276 46.968 202.303 44.84C204.38 42.712 206.736 41.0147 209.371 39.748C212.005 38.4307 214.944 37.772 218.187 37.772C219.656 37.772 221.227 37.9747 222.899 38.38C224.571 38.7853 226.192 39.368 227.763 40.128L240.303 2.508C240.607 1.49467 240.987 0.836001 241.443 0.531999C241.949 0.227997 242.709 0.0759954 243.723 0.0759954C245.293 0.0759954 246.281 0.329332 246.687 0.836004C247.143 1.292 247.193 2.02667 246.839 3.04L225.939 65.892C225.128 68.5267 224.799 70.3507 224.951 71.364C225.103 72.3267 225.964 72.808 227.535 72.808C227.991 72.808 228.32 73.112 228.523 73.72C228.776 74.2773 228.852 74.936 228.751 75.696C228.7 76.4053 228.472 77.0387 228.067 77.596C227.661 78.204 227.053 78.508 226.243 78.508C223.76 78.508 221.911 78.0773 220.695 77.216C219.479 76.4053 218.693 75.3667 218.339 74.1C218.035 72.7827 217.984 71.4147 218.187 69.996C218.44 68.5267 218.769 67.184 219.175 65.968L219.327 65.436C217.199 68.3747 215.071 70.8067 212.943 72.732C210.865 74.6573 208.864 76.1013 206.939 77.064C205.013 78.0267 203.189 78.508 201.467 78.508ZM203.595 72.428C205.368 72.428 207.369 71.5413 209.599 69.768C211.879 67.944 214.311 65.284 216.895 61.788C219.529 58.292 222.164 54.0613 224.799 49.096L226.015 45.524C224.241 44.8147 222.62 44.3587 221.151 44.156C219.681 43.9027 218.339 43.776 217.123 43.776C214.944 43.776 212.943 44.2827 211.119 45.296C209.295 46.3093 207.673 47.652 206.255 49.324C204.887 50.9453 203.721 52.7693 202.759 54.796C201.796 56.772 201.061 58.748 200.555 60.724C200.048 62.7 199.795 64.4987 199.795 66.12C199.795 67.3867 199.947 68.5013 200.251 69.464C200.555 70.4267 200.985 71.1613 201.543 71.668C202.151 72.1747 202.835 72.428 203.595 72.428ZM226.214 78.508C225.505 78.508 224.973 78.204 224.618 77.596C224.263 77.0387 224.137 76.4053 224.238 75.696C224.289 74.936 224.593 74.2773 225.15 73.72C225.707 73.112 226.518 72.808 227.582 72.808C228.798 72.808 230.191 72.2 231.762 70.984C233.282 69.768 235.081 67.868 237.158 65.284C239.235 62.6493 241.693 59.2293 244.53 55.024C247.367 50.768 250.686 45.6253 254.486 39.596C254.942 38.8867 255.525 38.5827 256.234 38.684C256.994 38.7853 257.602 39.1147 258.058 39.672C258.514 40.2293 258.539 40.8373 258.134 41.496C253.827 48.792 250.103 54.8467 246.962 59.66C243.871 64.4227 241.161 68.1973 238.83 70.984C236.499 73.72 234.346 75.6707 232.37 76.836C230.343 77.9507 228.291 78.508 226.214 78.508ZM271.358 76.684C272.371 75.9747 273.385 75.316 274.398 74.708C275.411 74.0493 276.374 73.4413 277.286 72.884C278.249 72.276 279.161 71.744 280.022 71.288C280.883 70.7813 281.669 70.3507 282.378 69.996C283.189 69.5907 283.822 69.54 284.278 69.844C284.785 70.148 285.114 70.6547 285.266 71.364C285.469 72.0227 285.469 72.6813 285.266 73.34C285.063 73.9987 284.709 74.5053 284.202 74.86C283.189 75.4173 282.125 76.0507 281.01 76.76C279.895 77.4187 278.73 78.1027 277.514 78.812C276.349 79.572 275.158 80.332 273.942 81.092C272.777 81.9027 271.586 82.7133 270.37 83.524L271.358 76.684ZM249.166 116.66C246.481 116.66 244.277 115.9 242.554 114.38C240.882 112.911 240.046 110.985 240.046 108.604C240.046 106.831 240.375 105.057 241.034 103.284C241.743 101.561 242.757 99.8133 244.074 98.04C245.391 96.2667 247.038 94.4427 249.014 92.568C251.041 90.744 253.371 88.8187 256.006 86.792C257.323 85.8293 258.565 84.9173 259.73 84.056C260.946 83.1947 262.162 82.3333 263.378 81.472C264.594 80.6613 265.861 79.8253 267.178 78.964L272.422 62.776C270.851 65.2587 269.23 67.4627 267.558 69.388C265.937 71.3133 264.265 72.96 262.542 74.328C260.819 75.6453 259.097 76.6333 257.374 77.292C255.651 78.0013 253.903 78.356 252.13 78.356C249.799 78.356 247.975 77.7987 246.658 76.684C245.391 75.5187 244.707 73.8213 244.606 71.592C244.505 69.312 244.986 66.5507 246.05 63.308L253.65 40.508C254.005 39.4947 254.41 38.836 254.866 38.532C255.373 38.228 256.107 38.076 257.07 38.076C258.641 38.076 259.629 38.3293 260.034 38.836C260.49 39.292 260.541 40.0267 260.186 41.04L252.13 65.056C251.674 66.3227 251.37 67.5133 251.218 68.628C251.117 69.7427 251.294 70.6293 251.75 71.288C252.257 71.9467 253.194 72.276 254.562 72.276C256.335 72.276 258.261 71.516 260.338 69.996C262.415 68.476 264.543 66.348 266.722 63.612C268.951 60.876 271.13 57.6587 273.258 53.96C275.386 50.2107 277.362 46.132 279.186 41.724L279.566 40.508C279.921 39.4947 280.326 38.836 280.782 38.532C281.289 38.228 282.023 38.076 282.986 38.076C284.557 38.076 285.545 38.3293 285.95 38.836C286.406 39.292 286.457 40.0267 286.102 41.04L268.166 96.216C267.001 99.864 265.759 102.98 264.442 105.564C263.175 108.148 261.807 110.251 260.338 111.872C258.869 113.544 257.197 114.76 255.322 115.52C253.498 116.28 251.446 116.66 249.166 116.66ZM250.306 110.808C251.826 110.808 253.245 110.301 254.562 109.288C255.879 108.275 257.121 106.679 258.286 104.5C259.451 102.321 260.591 99.4587 261.706 95.912L264.518 87.324C263.809 87.78 263.099 88.2613 262.39 88.768C261.681 89.2747 260.971 89.7813 260.262 90.288C259.553 90.7947 258.843 91.3267 258.134 91.884C256.107 93.556 254.359 95.1013 252.89 96.52C251.471 97.9893 250.306 99.3573 249.394 100.624C248.533 101.891 247.874 103.081 247.418 104.196C247.013 105.361 246.81 106.476 246.81 107.54C246.81 108.148 246.937 108.705 247.19 109.212C247.443 109.719 247.823 110.099 248.33 110.352C248.887 110.656 249.546 110.808 250.306 110.808ZM326.218 78.584C324.343 78.584 322.621 78.1533 321.05 77.292C319.479 76.4813 318.213 75.3667 317.25 73.948C316.287 72.4787 315.806 70.8573 315.806 69.084C315.806 67.564 316.135 66.1707 316.794 64.904C317.503 63.5867 318.542 62.548 319.91 61.788C321.278 60.9773 322.975 60.572 325.002 60.572C327.231 60.572 329.385 60.8507 331.462 61.408C333.539 61.9147 335.541 62.5987 337.466 63.46C339.442 64.3213 341.393 65.2333 343.318 66.196C345.243 67.1587 347.143 68.0707 349.018 68.932C350.943 69.7933 352.869 70.5027 354.794 71.06C356.719 71.5667 358.695 71.82 360.722 71.82C363.255 71.82 365.789 71.3133 368.322 70.3C370.855 69.236 373.287 67.792 375.618 65.968C377.999 64.144 380.178 61.9907 382.154 59.508C384.181 57.0253 385.954 54.34 387.474 51.452C388.994 48.564 390.159 45.5493 390.97 42.408C391.831 39.2667 392.262 36.1253 392.262 32.984C392.262 28.6267 391.578 24.8013 390.21 21.508C388.893 18.164 387.018 15.4027 384.586 13.224C382.154 10.9947 379.241 9.32267 375.846 8.208C372.502 7.09333 368.778 6.536 364.674 6.536C361.887 6.536 359.253 6.73867 356.77 7.144C354.338 7.49867 352.058 8.056 349.93 8.816C347.853 9.576 345.927 10.5387 344.154 11.704C342.381 12.8187 340.785 14.136 339.366 15.656C337.947 17.1253 336.681 18.8227 335.566 20.748C335.11 21.5587 334.578 22.0147 333.97 22.116C333.362 22.1667 332.577 21.9893 331.614 21.584C330.905 21.1787 330.423 20.6973 330.17 20.14C329.967 19.532 330.043 18.8733 330.398 18.164C331.614 15.7827 333.109 13.6547 334.882 11.78C336.655 9.85467 338.631 8.15733 340.81 6.688C343.039 5.21867 345.471 4.00267 348.106 3.04C350.741 2.07733 353.553 1.34267 356.542 0.836004C359.531 0.329332 362.647 0.0759954 365.89 0.0759954C370.754 0.0759954 375.213 0.78533 379.266 2.204C383.37 3.62267 386.917 5.72533 389.906 8.512C392.895 11.248 395.201 14.6427 396.822 18.696C398.443 22.6987 399.254 27.3347 399.254 32.604C399.254 36.3533 398.747 40.1027 397.734 43.852C396.771 47.5507 395.403 51.0973 393.63 54.492C391.907 57.8867 389.83 61.028 387.398 63.916C385.017 66.7533 382.357 69.236 379.418 71.364C376.53 73.492 373.465 75.164 370.222 76.38C367.03 77.5453 363.737 78.128 360.342 78.128C357.707 78.128 355.098 77.748 352.514 76.988C349.93 76.228 347.422 75.2907 344.99 74.176C342.558 73.0107 340.227 71.8453 337.998 70.68C335.769 69.5147 333.641 68.552 331.614 67.792C329.587 67.032 327.687 66.652 325.914 66.652C324.85 66.652 324.065 66.9053 323.558 67.412C323.051 67.868 322.798 68.5013 322.798 69.312C322.798 70.4267 323.254 71.2373 324.166 71.744C325.078 72.2507 325.965 72.504 326.826 72.504C328.397 72.504 329.638 72.2 330.55 71.592C331.513 70.9333 332.349 69.8693 333.058 68.4C333.767 66.88 334.502 64.8533 335.262 62.32L350.158 16.188C350.411 15.4787 350.842 14.9467 351.45 14.592C352.058 14.2373 352.919 14.06 354.034 14.06C355.25 14.06 356.111 14.2627 356.618 14.668C357.125 15.0227 357.251 15.58 356.998 16.34L341.95 63.004C340.734 66.9053 339.391 69.996 337.922 72.276C336.503 74.5053 334.857 76.1267 332.982 77.14C331.158 78.1027 328.903 78.584 326.218 78.584ZM386.841 78.508C386.132 78.508 385.6 78.204 385.245 77.596C384.891 77.0387 384.764 76.4053 384.865 75.696C384.916 74.936 385.22 74.2773 385.777 73.72C386.335 73.112 387.145 72.808 388.209 72.808C389.831 72.808 391.857 72.3773 394.289 71.516C396.671 70.604 399.204 69.388 401.889 67.868C404.625 66.348 407.235 64.6507 409.717 62.776C411.997 61.104 414.049 59.3813 415.873 57.608C417.697 55.8347 419.141 54.0867 420.205 52.364C421.32 50.6413 421.877 49.0453 421.877 47.576C421.877 46.4107 421.624 45.4987 421.117 44.84C420.611 44.1813 419.851 43.852 418.837 43.852C418.128 43.852 417.596 43.548 417.241 42.94C416.937 42.332 416.836 41.6227 416.937 40.812C417.039 40.0013 417.368 39.292 417.925 38.684C418.533 38.076 419.369 37.772 420.433 37.772C421.953 37.772 423.347 38.1013 424.613 38.76C425.88 39.368 426.868 40.28 427.577 41.496C428.337 42.6613 428.717 44.08 428.717 45.752C428.717 48.032 427.983 50.4387 426.513 52.972C425.095 55.4547 423.195 57.9373 420.813 60.42C418.432 62.852 415.772 65.132 412.833 67.26C409.895 69.4387 406.829 71.3893 403.637 73.112C400.496 74.784 397.481 76.1013 394.593 77.064C391.655 78.0267 389.071 78.508 386.841 78.508ZM416.203 78.508C414.429 78.508 412.833 78.204 411.415 77.596C409.945 77.0387 408.653 76.2533 407.539 75.24C406.424 74.2267 405.487 73.036 404.727 71.668C403.967 70.2493 403.409 68.7293 403.055 67.108C402.649 65.4867 402.447 63.8147 402.447 62.092C402.447 60.2173 402.649 58.1907 403.055 56.012C403.46 53.7827 404.119 51.604 405.031 49.476C405.943 47.348 407.108 45.3973 408.527 43.624C409.945 41.8507 411.668 40.432 413.695 39.368C415.671 38.304 417.976 37.772 420.611 37.772C421.067 37.772 421.345 38.076 421.447 38.684C421.548 39.292 421.497 40.0013 421.295 40.812C421.092 41.6227 420.813 42.332 420.459 42.94C420.053 43.548 419.623 43.852 419.167 43.852C417.444 43.852 415.949 44.4853 414.683 45.752C413.416 47.0187 412.377 48.6147 411.567 50.54C410.756 52.4653 410.173 54.4667 409.819 56.544C409.413 58.5707 409.211 60.3693 409.211 61.94C409.211 63.3587 409.388 64.7013 409.743 65.968C410.097 67.2347 410.629 68.3493 411.339 69.312C412.048 70.2747 412.935 71.0347 413.999 71.592C415.012 72.1493 416.203 72.428 417.571 72.428C419.8 72.428 422.207 71.668 424.791 70.148C427.324 68.628 429.984 66.424 432.771 63.536C435.557 60.5973 438.42 57.0507 441.359 52.896C444.297 48.7413 447.261 44.0293 450.251 38.76C450.453 38.304 450.884 38.2027 451.543 38.456C452.252 38.7093 452.86 39.1147 453.367 39.672C453.924 40.1787 454.076 40.6853 453.823 41.192C450.58 47.272 447.363 52.6427 444.171 57.304C440.979 61.9653 437.812 65.8667 434.671 69.008C431.529 72.1493 428.413 74.5307 425.323 76.152C422.232 77.7227 419.192 78.508 416.203 78.508ZM461.651 78.508C460.587 78.508 459.523 78.432 458.459 78.28C457.395 78.128 456.255 78.0267 455.039 77.976C453.873 77.9253 452.531 78.052 451.011 78.356L451.923 76.608C453.797 75.7973 455.469 75.1133 456.939 74.556C458.408 73.9987 459.649 73.568 460.663 73.264C461.727 72.96 462.512 72.808 463.019 72.808C463.475 72.808 463.779 73.112 463.931 73.72C464.083 74.2773 464.083 74.936 463.931 75.696C463.829 76.4053 463.576 77.0387 463.171 77.596C462.765 78.204 462.259 78.508 461.651 78.508ZM448.959 78.66C446.476 78.66 444.221 78.28 442.195 77.52C440.219 76.76 438.851 75.9493 438.091 75.088C437.331 74.2773 436.976 73.5933 437.027 73.036C437.077 72.428 437.432 71.82 438.091 71.212C438.699 70.604 439.231 70.3253 439.687 70.376C440.193 70.4267 440.852 70.7307 441.663 71.288C442.524 71.8453 443.537 72.352 444.703 72.808C445.919 73.2133 447.211 73.416 448.579 73.416C451.213 73.416 453.265 72.7827 454.735 71.516C456.204 70.2493 456.939 68.5013 456.939 66.272C456.939 65.0053 456.736 63.7387 456.331 62.472C455.925 61.1547 455.393 59.8373 454.735 58.52C454.076 57.2027 453.392 55.86 452.683 54.492C451.973 53.124 451.289 51.7053 450.631 50.236C449.972 48.7667 449.44 47.2467 449.035 45.676C448.629 44.0547 448.427 42.3827 448.427 40.66C448.427 37.9747 449.035 36.0747 450.251 34.96C451.517 33.7947 452.835 33.212 454.203 33.212C455.368 33.212 456.255 33.5413 456.863 34.2C457.521 34.808 457.851 35.5933 457.851 36.556C457.851 37.5693 457.445 38.6587 456.635 39.824C455.875 40.9893 455.064 42.0787 454.203 43.092C454.203 44.308 454.431 45.524 454.887 46.74C455.343 47.9053 455.925 49.1213 456.635 50.388C457.344 51.604 458.079 52.8453 458.839 54.112C459.649 55.3787 460.409 56.696 461.119 58.064C461.828 59.3813 462.411 60.7493 462.867 62.168C463.323 63.536 463.551 64.98 463.551 66.5C463.551 70.148 462.233 73.0867 459.599 75.316C457.015 77.5453 453.468 78.66 448.959 78.66ZM461.636 78.508C460.927 78.508 460.395 78.204 460.04 77.596C459.685 77.0387 459.559 76.4053 459.66 75.696C459.711 74.936 460.015 74.2773 460.572 73.72C461.129 73.112 461.94 72.808 463.004 72.808C464.22 72.808 465.613 72.2 467.184 70.984C468.704 69.768 470.503 67.868 472.58 65.284C474.657 62.6493 477.115 59.2293 479.952 55.024C482.789 50.768 486.108 45.6253 489.908 39.596C490.364 38.8867 490.947 38.5827 491.656 38.684C492.416 38.7853 493.024 39.1147 493.48 39.672C493.936 40.2293 493.961 40.8373 493.556 41.496C489.249 48.792 485.525 54.8467 482.384 59.66C479.293 64.4227 476.583 68.1973 474.252 70.984C471.921 73.72 469.768 75.6707 467.792 76.836C465.765 77.9507 463.713 78.508 461.636 78.508ZM486.716 78.508C484.487 78.508 482.815 78.1027 481.7 77.292C480.636 76.4813 479.977 75.4427 479.724 74.176C479.471 72.8587 479.471 71.4907 479.724 70.072C479.977 68.6027 480.307 67.2347 480.712 65.968L489.072 40.508C489.427 39.4947 489.832 38.836 490.288 38.532C490.795 38.228 491.529 38.076 492.492 38.076C494.063 38.076 495.051 38.3293 495.456 38.836C495.912 39.292 495.963 40.0267 495.608 41.04L487.476 65.892C486.564 68.5773 486.133 70.4013 486.184 71.364C486.285 72.3267 486.919 72.808 488.084 72.808C488.793 72.808 489.325 73.112 489.68 73.72C490.035 74.2773 490.161 74.936 490.06 75.696C490.009 76.4053 489.705 77.0387 489.148 77.596C488.591 78.204 487.78 78.508 486.716 78.508ZM497.204 26.372C496.191 26.372 495.329 26.0427 494.62 25.384C493.911 24.7253 493.556 23.7627 493.556 22.496C493.556 21.128 493.987 19.836 494.848 18.62C495.76 17.404 497.153 16.796 499.028 16.796C500.092 16.796 500.979 17.1253 501.688 17.784C502.397 18.392 502.752 19.3547 502.752 20.672C502.752 22.04 502.296 23.332 501.384 24.548C500.523 25.764 499.129 26.372 497.204 26.372ZM486.351 78.508C485.641 78.508 485.109 78.204 484.755 77.596C484.4 77.0387 484.273 76.4053 484.375 75.696C484.425 74.936 484.729 74.2773 485.287 73.72C485.844 73.112 486.655 72.808 487.719 72.808C489.036 72.808 490.429 72.3267 491.899 71.364C493.368 70.4013 494.888 69.0587 496.459 67.336C497.979 65.6133 499.549 63.5867 501.171 61.256C502.792 58.9253 504.439 56.392 506.111 53.656C506.516 52.9973 507.073 52.7187 507.783 52.82C508.492 52.9213 509.075 53.2507 509.531 53.808C509.987 54.3147 510.012 54.8973 509.607 55.556C507.428 59.356 505.351 62.7 503.375 65.588C501.449 68.476 499.575 70.8827 497.751 72.808C495.876 74.6827 494.027 76.1013 492.203 77.064C490.328 78.0267 488.377 78.508 486.351 78.508ZM506.947 116.66C504.261 116.66 502.057 115.9 500.335 114.38C498.663 112.911 497.827 110.985 497.827 108.604C497.827 106.831 498.181 105.057 498.891 103.284C499.549 101.561 500.537 99.8133 501.855 98.04C503.172 96.2667 504.819 94.4427 506.795 92.568C508.821 90.744 511.152 88.8187 513.787 86.792C515.104 85.8293 516.345 84.9173 517.511 84.056C518.727 83.1947 519.943 82.3333 521.159 81.472C522.375 80.6613 523.641 79.8253 524.959 78.964L529.519 64.828C527.34 67.9187 525.161 70.4773 522.983 72.504C520.855 74.5307 518.803 76.0507 516.827 77.064C514.851 78.0267 512.976 78.508 511.203 78.508C509.48 78.508 507.985 78.052 506.719 77.14C505.452 76.228 504.464 74.936 503.755 73.264C503.045 71.592 502.691 69.616 502.691 67.336C502.691 65.0053 503.045 62.4973 503.755 59.812C504.464 57.1267 505.528 54.492 506.947 51.908C508.365 49.324 510.088 46.968 512.115 44.84C514.141 42.712 516.472 41.0147 519.107 39.748C521.792 38.4307 524.731 37.772 527.923 37.772C528.936 37.772 529.975 37.8733 531.039 38.076C532.103 38.228 533.192 38.4813 534.307 38.836C535.421 39.1907 536.485 39.6213 537.499 40.128L537.727 39.672C537.98 39.064 538.36 38.6587 538.867 38.456C539.373 38.2027 540.032 38.076 540.843 38.076C542.413 38.076 543.401 38.3293 543.807 38.836C544.263 39.292 544.313 40.0267 543.959 41.04L525.947 96.216C524.731 99.864 523.489 102.98 522.223 105.564C520.956 108.148 519.588 110.251 518.119 111.872C516.649 113.544 514.977 114.76 513.103 115.52C511.279 116.28 509.227 116.66 506.947 116.66ZM508.087 110.808C509.607 110.808 511.025 110.301 512.343 109.288C513.66 108.275 514.901 106.653 516.067 104.424C517.283 102.245 518.423 99.408 519.487 95.912L522.299 87.324C521.589 87.78 520.88 88.2613 520.171 88.768C519.461 89.2747 518.752 89.7813 518.043 90.288C517.333 90.7947 516.624 91.3267 515.915 91.884C513.888 93.5053 512.14 95.0507 510.671 96.52C509.252 97.9893 508.087 99.3573 507.175 100.624C506.313 101.891 505.655 103.081 505.199 104.196C504.793 105.361 504.591 106.476 504.591 107.54C504.591 108.148 504.717 108.705 504.971 109.212C505.224 109.719 505.604 110.099 506.111 110.352C506.668 110.656 507.327 110.808 508.087 110.808ZM513.407 72.428C515.18 72.428 517.207 71.516 519.487 69.692C521.817 67.8173 524.275 65.1067 526.859 61.56C529.493 58.0133 532.153 53.656 534.839 48.488L535.827 45.448C534.104 44.7387 532.483 44.2827 530.963 44.08C529.493 43.8773 528.125 43.776 526.859 43.776C524.68 43.776 522.679 44.2827 520.855 45.296C519.081 46.3093 517.485 47.652 516.067 49.324C514.699 50.9453 513.533 52.7693 512.571 54.796C511.608 56.772 510.873 58.748 510.367 60.724C509.86 62.7 509.607 64.4987 509.607 66.12C509.607 67.3867 509.759 68.5013 510.063 69.464C510.367 70.4267 510.797 71.1613 511.355 71.668C511.963 72.1747 512.647 72.428 513.407 72.428ZM529.881 83.296C529.324 83.7013 528.741 83.7773 528.133 83.524C527.474 83.2707 526.942 82.8653 526.537 82.308C526.132 81.7507 525.98 81.1173 526.081 80.408C526.132 79.7493 526.562 79.1667 527.373 78.66C530.616 76.4813 533.529 74.1253 536.113 71.592C538.646 69.0587 540.952 66.5 543.029 63.916C545.056 61.2813 546.905 58.6973 548.577 56.164C550.3 53.6307 551.946 51.2493 553.517 49.02C555.088 46.7907 556.658 44.84 558.229 43.168C559.85 41.496 561.548 40.1787 563.321 39.216C565.094 38.2533 567.07 37.772 569.249 37.772C570.161 37.772 570.82 38.076 571.225 38.684C571.681 39.2413 571.833 39.9 571.681 40.66C571.529 41.3693 571.098 42.028 570.389 42.636C569.68 43.1933 568.666 43.472 567.349 43.472C566.386 43.472 565.322 43.9787 564.157 44.992C562.992 45.9547 561.725 47.2973 560.357 49.02C558.989 50.7427 557.52 52.7187 555.949 54.948C554.378 57.1773 552.656 59.5587 550.781 62.092C548.957 64.5747 546.981 67.0827 544.853 69.616C542.674 72.0987 540.344 74.5307 537.861 76.912C535.378 79.2933 532.718 81.4213 529.881 83.296ZM553.441 78.356C552.63 78.356 551.87 78.1787 551.161 77.824C550.502 77.4693 550.325 76.8107 550.629 75.848L560.509 45.296C560.661 44.7893 560.636 44.3587 560.433 44.004C560.281 43.6493 559.901 43.472 559.293 43.472C558.685 43.472 558.254 43.1933 558.001 42.636C557.798 42.028 557.773 41.3693 557.925 40.66C558.077 39.9 558.432 39.2413 558.989 38.684C559.546 38.076 560.281 37.772 561.193 37.772C563.068 37.772 564.436 38.1267 565.297 38.836C566.209 39.4947 566.766 40.3813 566.969 41.496C567.172 42.56 567.172 43.7 566.969 44.916C566.766 46.132 566.513 47.2467 566.209 48.26L564.689 52.82C566.26 50.388 567.856 48.26 569.477 46.436C571.149 44.5613 572.821 42.9907 574.493 41.724C576.165 40.4067 577.862 39.4187 579.585 38.76C581.308 38.1013 583.03 37.772 584.753 37.772C587.084 37.772 588.882 38.3547 590.149 39.52C591.416 40.6347 592.125 42.3067 592.277 44.536C592.429 46.7653 591.948 49.5267 590.833 52.82L585.133 69.312C584.829 70.2747 584.652 70.984 584.601 71.44C584.601 71.896 584.702 72.2 584.905 72.352C585.108 72.504 585.336 72.58 585.589 72.58C586.096 72.58 586.602 72.428 587.109 72.124C587.666 71.7693 588.249 71.288 588.857 70.68C589.516 70.0213 590.2 69.2613 590.909 68.4C591.314 67.8933 591.72 67.6147 592.125 67.564C592.53 67.4627 593.012 67.6147 593.569 68.02C594.38 68.5267 594.861 69.0333 595.013 69.54C595.216 70.0467 595.165 70.5533 594.861 71.06C594.405 71.82 593.67 72.7827 592.657 73.948C591.694 75.1133 590.478 76.152 589.009 77.064C587.54 77.9253 585.893 78.356 584.069 78.356C582.194 78.356 580.801 77.9507 579.889 77.14C579.028 76.2787 578.521 75.2147 578.369 73.948C578.217 72.6813 578.268 71.3387 578.521 69.92C578.825 68.5013 579.18 67.184 579.585 65.968L584.753 51.072C585.209 49.7547 585.488 48.564 585.589 47.5C585.741 46.3853 585.564 45.4987 585.057 44.84C584.601 44.1813 583.664 43.852 582.245 43.852C580.573 43.852 578.698 44.5867 576.621 46.056C574.594 47.5253 572.492 49.5773 570.313 52.212C568.185 54.8467 566.057 57.988 563.929 61.636C561.801 65.2333 559.825 69.2107 558.001 73.568L557.089 76.38C556.886 77.0387 556.506 77.52 555.949 77.824C555.442 78.1787 554.606 78.356 553.441 78.356Z" fill="url(#paint0_linear_223_570)"/>
<defs>
<linearGradient id="paint0_linear_223_570" x1="-12.844" y1="41.716" x2="599.156" y2="41.716" gradientUnits="userSpaceOnUse">
<stop offset="0.103481" stop-color="#00F4FD"/>
<stop offset="0.279972" stop-color="#9099FB"/>
<stop offset="0.449675" stop-color="#FF8CE2"/>
<stop offset="0.622772" stop-color="#FF8CE2"/>
<stop offset="0.79731" stop-color="#9099FB"/>
<stop offset="0.979147" stop-color="#00F4FD"/>
</linearGradient>
</defs>
</svg>
